:SAMPLES-PER-SECOND 30
:FULLY-SPECIFIED
:DEGREES
122
root  14.95897789 38.41222328 2.619599921 -13.41999817 -66.37799835 10.69200134
lowerback  15.81750011 3.123110056 1.594040036
upperback  6.757699966 4.148200035 2.639549971
thorax  -1.761459947 1.943670034 1.166180015
lowerneck  -0.2459519953 9.088080406 1.465270042
upperneck  13.94149971 12.07890034 -0.4305869937
head  4.817599773 5.938129902 0.1194550022
lclavicle  0 -9.442270133e-015 7.951389973e-016
lhumerus  8.196519852 -5.79392004 84.03250122
lradius  2.516026321e-031 -2.477590682e-031 135.4409943
lwrist  0 8.827812596e-032 20.15390015
lhand  -1.496451383e-031 -27.76390076 20.11240005
lfingers  90 7.125020027 -90
lthumb  89.89689403 5.08795885 91.16245106
rclavicle  0 -9.442270133e-015 7.951389973e-016
rhumerus  31.12639999 17.83480072 -74.54129791
rradius  -1.377167278e-031 3.251500319e-031 112.9550018
rwrist  1.412450015e-030 5.296687558e-031 -52.19100189
rhand  -7.920061211e-032 -33.2840004 9.303460121
rfingers  -90 -7.125020027 -90
rthumb  -92.93752616 -24.25625642 -97.11982154
rfemur  -19.72660065 17.78650093 -6.558710098
rtibia  -0 0 57.67679977
rfoot  -0 -15.70409966 -7.571849823
rtoes  5.373923086 19.29304026 -105.8922705
lfemur  -25.97850037 -1.24635005 -2.602979898
ltibia  -0 0 68.1352005
lfoot  8.848115094e-032 -3.882129908 -6.926350117
ltoes  -4.250644065 -19.5611806 -102.515957
123
root  14.99751083 38.27911137 2.642022155 -14.63400269 -67.07700348 11.81500244
lowerback  16.13129997 3.121530056 0.990440011
upperback  6.720469952 4.062039852 2.556930065
thorax  -2.002310038 1.889719963 1.415410042
lowerneck  0.1176960021 9.09401989 1.958600044
upperneck  13.96780014 12.05189991 -0.3785150051
head  4.788990021 5.950759888 0.03758570179
lclavicle  0 -9.442270133e-015 7.951389973e-016
lhumerus  7.689350128 -6.320370197 84.16329956
lradius  2.513084382e-031 -2.480574717e-031 135.3730011
lwrist  -7.062250077e-031 1.765562519e-031 20.44739914
lhand  -1.496451383e-031 -27.76390076 20.11240005
lfingers  90 7.125020027 -90
lthumb  89.89689403 5.08795885 91.16245106
rclavicle  0 -9.442270133e-015 7.951389973e-016
rhumerus  29.94869995 17.41889954 -74.69499969
rradius  -1.403396848e-031 3.240265626e-031 113.4179993
rwrist  7.062250077e-031 7.062250077e-031 -52.1678009
rhand  -7.920061211e-032 -33.2840004 9.303460121
rfingers  -90 -7.125020027 -90
rthumb  -92.93752616 -24.25625642 -97.11982154
rfemur  -20.43969917 18.15940094 -6.880219936
rtibia  -0 0 59.48849869
rfoot  -9.13085751e-032 -14.80280018 -6.677100182
rtoes  5.373923086 19.29304026 -105.8922705
lfemur  -26.06780052 -0.8850299716 -3.283070087
ltibia  -0 0 68.78119659
lfoot  4.427135771e-032 -4.430530071 -6.253029823
ltoes  -4.250644065 -19.5611806 -102.515957
124
root  15.01813273 38.11355651 2.654844382 -15.76899719 -67.63800049 12.83599854
lowerback  16.21940041 2.940639973 0.4913409948
upperback  6.854730129 3.734489918 2.396919966
thorax  -1.921659946 1.717260003 1.585630059
lowerneck  0.1919499934 9.226559639 2.150739908
upperneck  13.91009998 12.20170021 -0.2587260008
head  4.760839939 6.038529873 0.04691059887
lclavicle  0 -9.442270133e-015 7.951389973e-016
lhumerus  7.390749931 -6.541769981 84.04029846
lradius  2.510398825e-031 -2.483292528e-031 135.3110046
lwrist  -7.062250077e-031 -8.827812596e-032 20.76650047
lhand  -1.496451383e-031 -27.76390076 20.11240005
lfingers  90 7.125020027 -90
lthumb  89.89689403 5.08795885 91.16245106
rclavicle  0 -9.442270133e-015 7.951389973e-016
rhumerus  29.07060051 17.30879974 -75.05410004
rradius  -1.427787708e-031 3.22959228e-031 113.8499985
rwrist  7.062250077e-031 5.296687558e-031 -52.3647995
rhand  -7.920061211e-032 -33.2840004 9.303460121
rfingers  -90 -7.125020027 -90
rthumb  -92.93752616 -24.25625642 -97.11982154
rfemur  -20.89769936 18.52610016 -7.070179939
rtibia  -0 0 61.0481987
rfoot  -4.552068949e-032 -14.15250015 -4.583539963
rtoes  5.373923086 19.29304026 -105.8922705
lfemur  -26.06559944 -0.570958972 -3.888190031
ltibia  -0 0 68.98619843
lfoot  4.425575942e-032 -4.161759853 -5.823890209
ltoes  -4.250644065 -19.5611806 -102.515957
125
root  15.02277795 37.92244318 2.670399974 -17.102005 -68.02100372 13.97799683
lowerback  16.44610023 2.782320023 -0.2408079952
upperback  6.904709816 3.412179947 2.393409967
thorax  -2.021699905 1.542189956 2.043420076
lowerneck  0.2877469957 9.316399574 2.093349934
upperneck  13.96370029 12.32209969 -0.2696250081
head  4.760680199 6.092410088 0.05430069938
lclavicle  0 -9.442270133e-015 7.951389973e-016
lhumerus  6.735750198 -6.780869961 84.24739838
lradius  2.507883783e-031 -2.48583245e-031 135.253006
lwrist  -7.062250077e-031 8.827812596e-032 20.11840057
lhand  -1.496451383e-031 -27.76390076 20.11240005
lfingers  90 7.125020027 -90
lthumb  89.89689403 5.08795885 91.16245106
rclavicle  0 -9.442270133e-015 7.951389973e-016
rhumerus  27.9368 17.39319992 -75.14659882
rradius  -1.456814731e-031 3.216603003e-031 114.3659973
rwrist  7.062250077e-031 5.296687558e-031 -52.70769882
rhand  -7.920061211e-032 -33.2840004 9.303460121
rfingers  -90 -7.125020027 -90
rthumb  -92.93752616 -24.25625642 -97.11982154
rfemur  -20.94140053 18.84090042 -7.216800213
rtibia  -0 0 62.19309998
rfoot  -4.54176405e-032 -13.6274004 -1.745190024
rtoes  5.373923086 19.29304026 -105.8922705
lfemur  -25.82789993 -0.4986610115 -4.598879814
ltibia  -0 0 68.60959625
lfoot  4.421911661e-032 -3.448169947 -5.362120152
ltoes  -4.250644065 -19.5611806 -102.515957
126
root  15.0166444 37.70888922 2.687666735 -18.08299255 -68.30899811 14.7749939
lowerback  16.58279991 2.595570087 -0.777782023
upperback  6.913340092 3.082079887 2.371920109
thorax  -2.09762001 1.368460059 2.379450083
lowerneck  0.5241140127 9.411689758 2.094680071
upperneck  13.95580006 12.45800018 -0.3627269864
head  4.721670151 6.15433979 0.01625609957
lclavicle  0 -9.442270133e-015 7.951389973e-016
lhumerus  5.906159878 -6.988440037 84.54969788
lradius  2.505973785e-031 -2.487757911e-031 135.2089996
lwrist  -7.062250077e-031 -0 19.39719963
lhand  -1.496451383e-031 -27.76390076 20.11240005
lfingers  90 7.125020027 -90
lthumb  89.89689403 5.08795885 91.16245106
rclavicle  0 -9.442270133e-015 7.951389973e-016
rhumerus  26.62299919 17.55139923 -75.3062973
rradius  -1.49008329e-031 3.201327198e-031 114.9599991
rwrist  7.062250077e-031 1.765562519e-031 -52.80479813
rhand  -7.920061211e-032 -33.2840004 9.303460121
rfingers  -90 -7.125020027 -90
rthumb  -92.93752616 -24.25625642 -97.11982154
rfemur  -20.67280006 19.09930038 -7.098869801
rtibia  -0 0 62.85800171
rfoot  -4.531411009e-032 -13.07649994 0.3859730065
rtoes  5.373923086 19.29304026 -105.8922705
lfemur  -25.54430008 -0.6591209769 -5.213140011
ltibia  -0 0 67.72799683
lfoot  4.421094559e-032 -3.26770997 -4.951089859
ltoes  -4.250644065 -19.5611806 -102.515957
